<svg xmlns="http://www.w3.org/2000/svg" width="28.901" height="32.112" viewBox="0 0 28.901 32.112">
  <path id="Path_240" data-name="Path 240" d="M28.69,4.211H27.084V1H23.873V4.211H11.028V1H7.817V4.211H6.211A3.221,3.221,0,0,0,3,7.422V29.9a3.221,3.221,0,0,0,3.211,3.211H28.69A3.221,3.221,0,0,0,31.9,29.9V7.422A3.221,3.221,0,0,0,28.69,4.211Zm0,25.69H6.211V13.845H28.69ZM6.211,10.634V7.422H28.69v3.211Zm8.927,16.795,9.521-9.521-1.7-1.7-7.819,7.819-3.388-3.388-1.7,1.7Z" transform="translate(-3 -1)" fill="#079560"/>
</svg>
