<svg xmlns="http://www.w3.org/2000/svg" width="38.526" height="28.019" viewBox="0 0 38.526 28.019">
  <g id="Group_9" data-name="Group 9" transform="translate(0 0)">
    <path id="Path_6" data-name="Path 6" d="M16.67,13.13c2.4,1.629,4.08,3.835,4.08,6.777v5.254h7V19.907C27.755,16.09,21.5,13.83,16.67,13.13Z" transform="translate(10.771 2.858)" fill="#079560"/>
    <path id="Path_7" data-name="Path 7" d="M16,18.009A7,7,0,0,0,16,4a7.317,7.317,0,0,0-2.329.42,10.472,10.472,0,0,1,0,13.169A7.317,7.317,0,0,0,16,18.009Z" transform="translate(8.518 -4)" fill="#079560"/>
    <path id="Path_8" data-name="Path 8" d="M12,18.009a7,7,0,1,0-7-7A7,7,0,0,0,12,18.009ZM12,7.5A3.5,3.5,0,1,1,8.5,11,3.513,3.513,0,0,1,12,7.5Z" transform="translate(2.005 -4)" fill="#079560"/>
    <path id="Path_9" data-name="Path 9" d="M15.009,13C10.334,13,1,15.347,1,20v5.254H29.019V20C29.019,15.347,19.685,13,15.009,13Zm10.507,8.756H4.5V20.022c.35-1.261,5.779-3.52,10.507-3.52S25.166,18.761,25.517,20Z" transform="translate(-1 2.761)" fill="#079560"/>
  </g>
</svg>
